<?xml version="1.0" encoding="utf-8"?><svg xmlns="http://www.w3.org/2000/svg" xmlns:xlink="http://www.w3.org/1999/xlink"><symbol viewBox="0 0 30 30" id="arroba" xmlns="http://www.w3.org/2000/svg"><g clip-path="url(#clip0_86_279)"><path d="M14.941 0C6.683 0 0 6.683 0 14.941 0 23.138 6.623 30 14.941 30 23.182 30 30 23.208 30 14.941 30 6.613 23.13 0 14.941 0zm0 28.254c-7.269 0-13.195-5.979-13.195-13.313 0-7.269 5.926-13.195 13.195-13.195 7.335 0 13.313 5.926 13.313 13.195 0 7.335-5.979 13.313-13.313 13.313z"/><path d="M14.941 5.273c-5.33 0-9.668 4.337-9.668 9.668 0 5.351 4.329 9.786 9.668 9.786 2.161 0 4.347-.727 5.997-1.993a.879.879 0 10-1.07-1.394c-1.35 1.035-3.145 1.64-4.927 1.64-4.361 0-7.91-3.612-7.91-8.039 0-4.361 3.549-7.921 7.91-7.921 4.427 0 8.028 3.56 8.028 7.921v.88a1.76 1.76 0 01-1.758 1.757 1.76 1.76 0 01-1.758-1.758v-4.394a.879.879 0 00-1.758 0v.056a4.529 4.529 0 00-2.754-.935 4.4 4.4 0 00-4.394 4.394 4.4 4.4 0 004.394 4.395 4.55 4.55 0 003.383-1.512 3.514 3.514 0 006.403-2.004v-.879c0-5.347-4.441-9.668-9.786-9.668zm0 12.317a2.65 2.65 0 01-2.636-2.649 2.65 2.65 0 012.636-2.648c1.493 0 2.754 1.22 2.754 2.648 0 1.43-1.26 2.649-2.754 2.649z"/></g></symbol><symbol viewBox="0 0 24 24" id="arrow-left" xmlns="http://www.w3.org/2000/svg"><path d="M21 12H3M9 6l-6 6 6 6"/></symbol><symbol viewBox="0 0 30 30" id="benefits-1" xmlns="http://www.w3.org/2000/svg"><g clip-path="url(#clip0_26_614)"><path d="M18.82 9.744l-2.278-.331-1.019-2.064a.586.586 0 00-1.05 0l-1.02 2.064-2.278.33a.586.586 0 00-.325 1L12.5 12.35l-.39 2.268a.586.586 0 00.85.618l2.038-1.071 2.038 1.071a.586.586 0 00.85-.618l-.39-2.268 1.65-1.607a.586.586 0 00-.325-1zm-2.363 1.982a.586.586 0 00-.169.518l.241 1.402-1.259-.662a.586.586 0 00-.545 0l-1.26.662.24-1.402a.586.586 0 00-.168-.518l-1.019-.993 1.408-.205a.586.586 0 00.441-.32l.63-1.276.63 1.275c.085.173.25.293.441.32l1.408.206-1.019.993z"/><path d="M1.643 25.017l3.76.752.752 3.76a.586.586 0 001 .288l7.224-7.61c.179.038.37.059.572.059.205 0 .395-.021.574-.061l7.323 7.615a.586.586 0 00.997-.291l.752-3.76 3.76-.752a.586.586 0 00.309-.98l-5.879-6.156c.08-.024.162-.044.247-.057.673-.106 1.183-.474 1.558-1.125.36-.624.426-1.258.194-1.885-.267-.719-.071-1.458.51-1.929.53-.427.788-1 .788-1.752 0-.721-.26-1.303-.776-1.73-.59-.488-.79-1.226-.52-1.926.244-.634.18-1.26-.196-1.91-.36-.626-.877-1-1.535-1.11-.756-.129-1.298-.668-1.415-1.409-.106-.671-.474-1.18-1.125-1.557-.625-.36-1.26-.425-1.885-.192-.718.266-1.457.07-1.928-.513C16.276.257 15.702 0 14.95 0c-.72 0-1.302.26-1.729.775-.49.59-1.227.79-1.926.521-.636-.244-1.26-.18-1.911.195-.625.361-.999.878-1.11 1.537-.128.755-.668 1.297-1.407 1.414-.672.105-1.182.473-1.558 1.124-.36.625-.426 1.259-.193 1.885.267.72.07 1.459-.512 1.93-.53.428-.786 1-.786 1.752 0 .721.26 1.303.775 1.729.59.49.79 1.227.521 1.926-.245.636-.18 1.26.195 1.911.36.625.877.999 1.536 1.11.095.016.188.04.278.07l-5.793 6.162a.586.586 0 00.312.976zm4.885.403l-.052-.264a.586.586 0 00-.46-.46l-.358-.071 3.612-3.921c.4.255.837.409 1.304.399L6.528 25.42zm.554 2.771l-.271-1.358 5.546-5.918c.325.094.618.288.842.565.04.048.08.094.123.138l-6.24 6.573zm15.834.009l-6.34-6.593c.036-.037.07-.076.105-.117.235-.284.536-.482.868-.576l5.64 5.921-.273 1.365zm1.068-3.504a.586.586 0 00-.46.46l-.055.275-4.112-4.318c.383 0 .767-.111 1.16-.338.041-.024.081-.049.12-.074l3.693 3.926-.346.07zm3.099-.62l-1.4.28-4.25-4.519c.093-.184.158-.384.195-.6.039-.231.118-.443.231-.631l5.224 5.47zM7.042 16.655c-.222-.038-.481-.132-.717-.54-.246-.426-.197-.696-.116-.905.448-1.166.108-2.441-.868-3.25-.173-.143-.35-.354-.35-.826 0-.49.177-.7.35-.841.972-.786 1.315-2.06.874-3.248-.078-.212-.126-.483.11-.891.246-.426.504-.519.725-.553 1.234-.195 2.168-1.128 2.38-2.376.038-.223.132-.482.54-.718.425-.245.696-.196.905-.116 1.166.449 2.441.109 3.25-.867.143-.174.354-.351.826-.351.49 0 .7.178.841.351.786.972 2.06 1.315 3.249.874.21-.078.482-.127.89.109.425.246.519.505.553.725.195 1.234 1.127 2.169 2.377 2.381.221.038.48.131.716.54.246.426.197.696.117.904-.449 1.167-.108 2.442.867 3.25.174.144.351.355.351.827 0 .49-.177.7-.352.84-.971.786-1.314 2.061-.873 3.249.078.211.126.482-.11.891-.245.425-.504.518-.725.553-1.24.196-2.17 1.133-2.38 2.375-.056.334-.238.544-.54.718-.425.246-.696.197-.904.116a2.832 2.832 0 00-1.337-.178c-.74.079-1.42.45-1.913 1.046-.217.262-.478.35-.827.35-.431 0-.662-.13-.841-.35a2.827 2.827 0 00-2.212-1.064c-.348 0-.695.063-1.036.19-.211.078-.482.126-.891-.11-.38-.22-.51-.45-.553-.725-.192-1.212-1.108-2.165-2.376-2.38zm1.003 1.957c.107.182.18.385.216.606.035.227.104.438.203.632l-4.152 4.507-1.404-.281 5.137-5.464z"/><path d="M19.98 16.64a.586.586 0 100-1.171.586.586 0 000 1.172z"/><path d="M15 18.75a7.563 7.563 0 003.062-.64.586.586 0 10-.472-1.073 6.453 6.453 0 01-9.035-5.904A6.453 6.453 0 0115 4.688a6.453 6.453 0 015.934 8.965.586.586 0 101.078.459 7.565 7.565 0 00.605-2.98c0-4.2-3.417-7.616-7.617-7.616s-7.617 3.417-7.617 7.617S10.8 18.75 15 18.75z"/></g></symbol><symbol viewBox="0 0 30 30" id="benefits-2" xmlns="http://www.w3.org/2000/svg"><g clip-path="url(#clip0_5001_757)"><path d="M12.657 20.273a.586.586 0 100-1.171.586.586 0 000 1.171zM2.344 7.969v2.343c0 .324.263.586.586.586h16.934a.586.586 0 00.586-.585V7.969a.586.586 0 00-.586-.586H2.93a.586.586 0 00-.586.586zm6.211.586h10.723v1.172H8.555V8.555zm-5.039 0h3.868v1.172H3.516V8.555zM2.93 13.242h16.934a.586.586 0 100-1.172H2.93a.586.586 0 100 1.172zM2.93 15.586h16.934a.586.586 0 100-1.172H2.93a.586.586 0 100 1.172zM2.93 17.93h9.727a.586.586 0 100-1.172H2.93a.586.586 0 100 1.172zM2.93 20.273h7.383a.586.586 0 100-1.171H2.93a.586.586 0 100 1.171zM7.97 24.96h2.988a2.935 2.935 0 002.87 2.345 2.933 2.933 0 002.93-2.93 2.933 2.933 0 00-2.93-2.93 2.935 2.935 0 00-2.87 2.344H7.97a.586.586 0 100 1.172zm5.859-1.17h-1.657a1.76 1.76 0 011.657-1.173c.97 0 1.758.789 1.758 1.758a1.76 1.76 0 01-1.758 1.758 1.76 1.76 0 01-1.657-1.172h1.657a.586.586 0 000-1.172zM19.864 4.688a.586.586 0 100-1.172h-1.172a.586.586 0 000 1.171h1.172zM16.348 4.688a.586.586 0 000-1.172h-1.171a.586.586 0 000 1.171h1.171zM12.833 4.688a.586.586 0 000-1.172H11.66a.586.586 0 000 1.171h1.172zM11.485 30a.586.586 0 100-1.172.586.586 0 000 1.172z"/><path d="M.587 30h8.261a.586.586 0 100-1.172H1.173V5.86h4.101a.586.586 0 00.586-.586V1.172h15.762v16.561c-.266.315-.514.591-.729.811l-1.242-1.242a2.927 2.927 0 00-4.143 0l-.83.829a.586.586 0 000 .828l6.944 6.943v2.926h-7.5a.586.586 0 100 1.172h8.086a.586.586 0 00.586-.586v-2.34l.171.172c.23.228.6.228.829 0l.828-.829a2.928 2.928 0 000-4.143l-1.241-1.242c1.11-1.083 3.556-2.882 4.84-3.442 1.803-.785 2.454-3.236.916-4.774-1.527-1.528-3.968-.907-4.767.901-.3.678-.922 1.63-1.576 2.523V.586A.586.586 0 0022.208 0H5.274c-.16 0-.31.067-.414.172L.172 4.859a.589.589 0 00-.171.414v24.141c0 .324.262.586.586.586zm23.207-6.898a1.757 1.757 0 010 2.486l-.414.415-7.458-7.458.414-.414a1.756 1.756 0 012.486 0l4.972 4.971zm-1.127-4.791c1.015-1.225 2.267-2.974 2.774-4.12.456-1.03 1.903-1.51 2.867-.547.964.964.474 2.424-.555 2.872-1.457.635-3.995 2.508-5.201 3.687l-.83-.83c.278-.284.602-.649.945-1.062zM4.688 2v2.687H2.001L4.688 2z"/></g></symbol><symbol viewBox="0 0 30 30" id="benefits-3" xmlns="http://www.w3.org/2000/svg"><g clip-path="url(#clip0_5001_49)"><path d="M25.031 9.983C24.466-3.322 5.551-3.328 4.97 9.968A10.03 10.03 0 007.374 16.5c.426.498.805 1.033 1.133 1.597-1.944 1.21-.958 4.076 1.342 3.88.141.861.098 2.165.104 3.045a2.94 2.94 0 002.465 2.898c.637 2.774 4.529 2.772 5.165 0a2.94 2.94 0 002.465-2.898c.006-.883-.038-2.181.105-3.045 2.296.195 3.281-2.662 1.35-3.875a11.28 11.28 0 011.153-1.637 10.033 10.033 0 002.375-6.482zm-10.03 18.854c-.6 0-1.117-.362-1.344-.88h2.686c-.227.518-.743.88-1.343.88zm2.112-2.053h-4.225a1.766 1.766 0 01-1.761-1.816h7.747c.03.99-.77 1.817-1.761 1.816zm3.333-5.98H19.06c-.725.02-.798 1.038-.09 1.166-.08.6-.102 1.218-.095 1.823h-7.747a12.928 12.928 0 00-.094-1.816h2.742a.587.587 0 100-1.174h-4.22a.91.91 0 010-1.816h10.891c1.202.048 1.208 1.765 0 1.816zm-4.676-7.728a1.772 1.772 0 00-1.54 0l-2.204-3.048h1.22c.2 0 .387-.102.495-.271l.448-.704.988 2.255c.178.426.793.473 1.034.077l.855-1.357h.909l-2.205 3.048zm-1.357 1.584c-.002-.546.697-.796 1.04-.373l.002.002a.582.582 0 01.132.371v3.153h-1.174V14.66zm5.905 3.153h-3.556V14.66c0-.257-.055-.505-.16-.732l2.822-3.9h1.258c.779-.03.779-1.143 0-1.174h-.409l.506-.7c.431-.648-.47-1.3-.951-.688l-1.004 1.388h-2.082a.587.587 0 00-.497.274l-.437.694-.984-2.247c-.178-.425-.792-.474-1.033-.08l-.867 1.36h-1.747l-1.004-1.389c-.482-.612-1.383.04-.952.689l.506.7H9.32c-.78.03-.779 1.143 0 1.173h1.258l2.821 3.901a1.75 1.75 0 00-.159.731v3.153H9.693c-.4-.738-.878-1.435-1.427-2.076C3.373 10.059 7.496 1.101 15 1.127c7.487-.026 11.616 8.894 6.76 14.58a12.438 12.438 0 00-1.442 2.106z"/><path d="M16.96 21.614a.587.587 0 10-1.084-.452.587.587 0 001.084.452z"/></g></symbol><symbol viewBox="0 0 30 30" id="benefits-4" xmlns="http://www.w3.org/2000/svg"><g clip-path="url(#clip0_5001_614)"><path d="M28.656 26.656a.586.586 0 00-.83.829l.173.171H2.343V2.001l.171.171a.584.584 0 00.83 0 .586.586 0 000-.829L2.17.172a.586.586 0 00-.828 0L.17 1.343a.586.586 0 00.828.83L1.171 2v4.562H.585a.586.586 0 000 1.171h.586v2.344H.585a.586.586 0 000 1.172h.586v2.344H.585a.586.586 0 000 1.172h.586v2.343H.585a.586.586 0 000 1.172h.586v2.344H.585a.586.586 0 000 1.172h.586v2.344H.585a.586.586 0 000 1.172h.586v2.343H.585a.586.586 0 000 1.172h.586v.586a.586.586 0 001.172 0v-.586h2.344v.586a.586.586 0 001.171 0v-.586h2.344v.586a.586.586 0 001.172 0v-.586h2.344v.586a.586.586 0 001.172 0v-.586h2.343v.586a.586.586 0 001.172 0v-.586h2.344v.586a.586.586 0 001.172 0v-.586h2.344v.586a.586.586 0 001.172 0v-.586h4.561l-.171.172a.586.586 0 00.829.828l1.171-1.171a.586.586 0 000-.83l-1.171-1.171zM14.648 10.078a.586.586 0 100-1.172.586.586 0 000 1.172z"/><path d="M18.164 0h-3.516a.586.586 0 00-.585.586v6.27a.586.586 0 001.171 0V1.171h2.344v24.14h-2.344V12.13a.586.586 0 00-1.171 0v7.324h-2.344V8.32a.586.586 0 00-.586-.586H7.617a.586.586 0 00-.586.586v4.102h-2.93a.586.586 0 00-.585.586v12.89c0 .324.262.586.586.586h21.093a.586.586 0 00.586-.586V20.04a.586.586 0 00-.586-.586h-2.93v-6.445a.586.586 0 00-.585-.586h-2.93V.586A.586.586 0 0018.164 0zM7.031 25.313H4.688v-11.72H7.03v11.72zm3.516 0H8.203V8.905h2.344v16.407zm3.515 0H11.72v-4.688h2.344v4.688zm8.204-4.688h2.343v4.688h-2.343v-4.688zm-1.172-7.031v11.719H18.75v-11.72h2.344z"/></g></symbol><symbol viewBox="0 0 24 24" id="cancel" xmlns="http://www.w3.org/2000/svg"><g clip-path="url(#clip0_158_1199)"><path d="M13.326 12l10.4-10.399A.937.937 0 1022.4.275L12 10.675 1.6.275A.937.937 0 10.275 1.601l10.4 10.4-10.4 10.4A.938.938 0 101.6 23.725L12 13.326l10.4 10.4a.935.935 0 001.325 0 .937.937 0 000-1.326L13.325 12z"/></g></symbol><symbol viewBox="0 0 40 40" id="checked" xmlns="http://www.w3.org/2000/svg"><g clip-path="url(#clip0_18_165)"><path d="M38.856 5.468a1.507 1.507 0 00-2.132-.002L18.64 23.504l-6.525-7.087a1.508 1.508 0 00-2.218 2.042l7.588 8.24a1.506 1.506 0 002.173.047L38.853 7.601c.59-.588.591-1.543.003-2.133z"/><path d="M38.492 18.492c-.832 0-1.507.675-1.507 1.508 0 9.366-7.62 16.985-16.985 16.985-9.365 0-16.985-7.62-16.985-16.985 0-9.365 7.62-16.985 16.985-16.985A1.507 1.507 0 1020 0C8.972 0 0 8.972 0 20s8.972 20 20 20 20-8.972 20-20c0-.833-.675-1.508-1.508-1.508z"/></g></symbol><symbol viewBox="0 0 16 16" id="chevron-down" xmlns="http://www.w3.org/2000/svg"><path d="M4 6.667l4 4 4-4"/></symbol><symbol viewBox="0 0 31 30" id="chevron-left" xmlns="http://www.w3.org/2000/svg"><path d="M12.917 7.5l7.75 7.5-7.75 7.5"/></symbol><symbol viewBox="0 0 24 24" id="download" xmlns="http://www.w3.org/2000/svg"><g clip-path="url(#clip0_127_688)"><path d="M19.209 13.055L12 20.263l-7.209-7.208 1.326-1.326 4.946 4.945V0h1.874v16.674l4.946-4.945 1.326 1.326zM24 22.125H0V24h24v-1.875z"/></g></symbol><symbol viewBox="0 0 30 30" id="file" xmlns="http://www.w3.org/2000/svg"><g clip-path="url(#clip0_107_298)"><path d="M21.563 15h-3.75a.937.937 0 00-.938.938v7.5c0 .517.42.937.938.937h3.75c1.035 0 1.875-.84 1.875-1.875v-5.625c0-1.036-.84-1.875-1.875-1.875zm0 7.5H18.75v-5.625h2.813V22.5zM30 16.875V15h-4.688a.937.937 0 00-.937.938v8.437h1.875v-3.75H30V18.75h-3.75v-1.875H30z"/><path d="M1.875 27.187V2.812c0-.518.42-.937.938-.937h14.062v3.75c0 1.035.84 1.875 1.875 1.875h3.75v2.812h1.875v-3.75a.937.937 0 00-.272-.665L18.478.272A.938.938 0 0017.812 0h-15A2.813 2.813 0 000 2.812v24.375A2.812 2.812 0 002.813 30h6.562v-1.875H2.812a.938.938 0 01-.937-.938z"/><path d="M14.063 15h-3.75a.937.937 0 00-.938.938v8.437h1.875v-2.813h2.813c1.035 0 1.874-.839 1.874-1.875v-2.812c0-1.036-.839-1.875-1.874-1.875zm0 4.688H11.25v-2.813h2.813v2.813z"/></g></symbol><symbol viewBox="0 0 22 22" id="left" xmlns="http://www.w3.org/2000/svg"><path d="M9.166 5.5l5.5 5.5-5.5 5.5"/></symbol><symbol viewBox="0 0 40 40" id="lightning" xmlns="http://www.w3.org/2000/svg"><path d="M31.39.363A.723.723 0 0030.763 0H15.86a.723.723 0 00-.685.492L8.79 19.414a.723.723 0 00.685.954h6.054L8.561 39.024a.723.723 0 001.232.717l19.396-23.18a.723.723 0 00-.555-1.187h-5.6l8.353-14.286c.13-.224.132-.5.003-.725zm-10.24 15.37a.723.723 0 00.625 1.087h5.312L11.392 35.577l5.856-15.679a.723.723 0 00-.677-.976h-6.089L16.38 1.446h13.123L21.15 15.732z"/></symbol><symbol viewBox="0 0 20 20" id="pin" xmlns="http://www.w3.org/2000/svg"><path d="M10 0a6.674 6.674 0 00-6.667 6.667 6.68 6.68 0 00.8 3.168l5.502 9.95a.416.416 0 00.73 0l5.503-9.953a6.68 6.68 0 00.799-3.165A6.674 6.674 0 0010 0zm0 10a3.337 3.337 0 01-3.333-3.333A3.337 3.337 0 0110 3.333a3.337 3.337 0 013.333 3.334A3.337 3.337 0 0110 10z"/></symbol><symbol viewBox="0 0 30 30" id="plus" xmlns="http://www.w3.org/2000/svg"><g clip-path="url(#clip0_158_993)"><path d="M16.172 13.828V0h-2.344v13.828H0v2.344h13.828V30h2.344V16.172H30v-2.344H16.172z"/></g></symbol><symbol viewBox="0 0 40 40" id="sand-clock" xmlns="http://www.w3.org/2000/svg"><path d="M29.725 11.072V8.42h.392a1.76 1.76 0 001.764-1.734V2.936A1.762 1.762 0 0030.117 1.2H9.083A1.762 1.762 0 007.32 2.936v3.75a1.76 1.76 0 001.764 1.733h.392v2.653A4.117 4.117 0 0011.03 14.3l7.053 5.639-6.914 5.363a4.106 4.106 0 00-1.6 3.265v2.914h-.486a1.76 1.76 0 00-1.764 1.734v3.749c.014.964.8 1.737 1.764 1.736h21.034a1.762 1.762 0 001.764-1.736v-3.75a1.76 1.76 0 00-1.764-1.733h-.298v-2.895a4.16 4.16 0 00-1.637-3.29l-7.055-5.365 7.044-5.632a4.115 4.115 0 001.554-3.227zM9.194 3.075h20.812v3.469H9.194V3.075zm20.812 33.75H9.194v-3.469h1.15c.055 0 .109.015.166.015.056 0 .11-.015.165-.015h18.03c.053 0 .108.015.164.015.057 0 .111-.015.165-.015h.972v3.469zm-2.062-8.24v2.896h-16.5v-2.914a2.244 2.244 0 01.875-1.784l7.286-5.65 7.442 5.656c.56.428.892 1.091.897 1.797zm-.946-15.75l-7.396 5.915-7.4-5.915a2.249 2.249 0 01-.852-1.763V8.42h16.5v2.653a2.25 2.25 0 01-.852 1.763z"/></symbol><symbol viewBox="0 0 30 30" id="telephone" xmlns="http://www.w3.org/2000/svg"><g clip-path="url(#clip0_86_289)"><path d="M29.23 22.127l-3.73-3.73a2.64 2.64 0 00-3.73 0l-1.694 1.696a2 2 0 01-2.826 0l-7.347-7.354a1.997 1.997 0 010-2.825l1.695-1.695a2.636 2.636 0 00-.001-3.73L7.868.77A2.64 2.64 0 004.142.77l-1.36 1.347c-3.707 3.708-3.707 9.74 0 13.448l11.643 11.648a9.504 9.504 0 0013.448 0l1.357-1.356a2.64 2.64 0 000-3.729zM5.382 2.015a.88.88 0 011.244 0l3.729 3.717c.343.344.343.9 0 1.243l-.622.622-4.97-4.97.62-.612zM15.668 25.97L4.026 14.32a7.728 7.728 0 01-.485-10.43l4.955 4.955a3.752 3.752 0 00.163 5.136l7.348 7.354a3.752 3.752 0 005.136.164l4.955 4.954a7.713 7.713 0 01-10.43-.484zm12.319-1.357l-.622.622-4.973-4.973.622-.621a.88.88 0 011.243 0l3.73 3.73a.88.88 0 010 1.242z"/></g></symbol><symbol viewBox="0 0 25 24" id="youtube" xmlns="http://www.w3.org/2000/svg"><g clip-path="url(#clip0_803_14889)"><path d="M14.397 11.8l-2.695-1.258c-.235-.11-.429.013-.429.274v2.368c0 .26.194.383.429.274l2.694-1.258c.236-.11.236-.29.001-.4zM12.473.48C6.111.48.953 5.638.953 12c0 6.362 5.158 11.52 11.52 11.52 6.363 0 11.52-5.158 11.52-11.52 0-6.362-5.157-11.52-11.52-11.52zm0 16.2c-5.896 0-6-.532-6-4.68s.104-4.68 6-4.68c5.897 0 6 .532 6 4.68s-.103 4.68-6 4.68z"/></g></symbol></svg>